<?xml version="1.0" encoding="utf-8"?>
<!DOCTYPE svg PUBLIC "-//W3C//DTD SVG 1.0//EN" "http://www.w3.org/TR/2001/REC-SVG-20010904/DTD/svg10.dtd">
<svg version="1.0" xmlns="http://www.w3.org/2000/svg" width="1024px" height="532px" viewBox="0 0 1024 532" preserveAspectRatio="xMidYMid meet">
 <g fill="#ffaf22">
  <path d="M390.1 519.9 c-5 -1 -9.4 -3.5 -8.6 -4.9 0.3 -0.6 -0.1 -0.7 -0.9 -0.4 -1 0.4 -2.4 -1 -4.3 -4.3 -2.4 -4.2 -2.8 -5.8 -2.8 -12.8 0 -6.7 0.4 -8.7 2.5 -12.5 3.5 -6.2 9.6 -10.2 16.4 -10.8 6.4 -0.5 12.9 0.5 12.1 1.8 -0.3 0.6 0 0.7 0.8 0.4 2.1 -0.8 8.7 5.4 10.8 10.1 2.7 5.9 2.5 15.8 -0.4 21.5 -1.2 2.5 -2.8 4.4 -3.5 4.2 -0.8 -0.1 -1.1 0.1 -0.8 0.6 0.9 1.6 -4 5.3 -8.9 6.8 -5.3 1.5 -6 1.6 -12.4 0.3z m12.4 -8.9 c8.9 -5.5 9.3 -19.7 0.9 -27.6 -1.3 -1.2 -2.5 -2 -2.7 -1.7 -0.3 0.2 -2.1 0 -4.1 -0.5 -2.1 -0.6 -3.6 -0.7 -3.6 -0.1 0 0.5 -0.6 0.9 -1.4 0.9 -2 0 -6.5 3.8 -8.2 7.1 -2 3.9 -2 12.8 0 16.6 0.8 1.7 1.4 3.2 1.3 3.4 -0.1 0.2 0 0.3 0.1 0.2 0.2 -0.1 1.8 0.7 3.5 1.8 4.1 2.5 10.1 2.4 14.2 -0.1z m-7.6 -35.6 c0.2 -0.2 -0.7 -0.4 -2.2 -0.4 -1.4 0 -2.9 0.5 -3.2 1 -0.6 1 4.2 0.4 5.4 -0.6z"/>
  <path d="M441 520.1 c0 -0.7 -0.5 -0.9 -1.1 -0.6 -1.6 1 -7.1 -0.3 -9.8 -2.4 -2.2 -1.7 -2.3 -1.9 -0.7 -4.9 0.9 -1.8 1.9 -3.2 2.1 -3.2 0.2 0 1.9 0.9 3.7 2 4.6 2.8 11.1 2.7 13.8 -0.2 1.1 -1.2 2 -3 2 -3.9 0 -2.2 -4 -5.4 -8.6 -6.9 -2 -0.7 -3.1 -1.6 -2.8 -2.2 0.4 -0.6 0.2 -0.8 -0.4 -0.4 -3.1 1.9 -9.2 -4.9 -9.2 -10.3 0 -3.9 2.8 -9 6.2 -11.1 2.7 -1.7 4.6 -2 10.3 -1.8 4.6 0.2 7.9 1 9.7 2.2 2.7 1.7 2.7 1.8 1 5.1 -1.6 3.2 -1.8 3.3 -3.9 1.9 -1.3 -0.8 -4.2 -1.7 -6.5 -2 -5 -0.6 -7.6 0.9 -8 4.6 -0.3 2.2 0.6 2.9 7.9 6.5 4.5 2.2 9 4.9 10 5.9 1 1 1.2 1.6 0.6 1.2 -0.8 -0.4 -1.3 -0.1 -1.3 0.8 0 0.9 0.7 1.6 1.6 1.6 2.7 0 1.4 10.3 -1.7 13.6 -3.2 3.4 -4.5 4.1 -10.1 4.9 -3.4 0.5 -4.8 0.4 -4.8 -0.4z"/>
  <path d="M782.5 520.1 c-4.9 -1.2 -10 -4.2 -8.6 -5.1 0.7 -0.4 1.2 -1 1.2 -1.4 -0.2 -1.4 0 -2.2 0.8 -3.4 0.6 -1.1 1.5 -0.9 4.2 0.7 6.4 3.9 15.9 1.9 15.9 -3.4 0 -3.1 -2 -4.9 -7.5 -7 -2.5 -1 -4.5 -2.2 -4.5 -2.8 0 -0.6 -0.3 -0.7 -0.6 -0.4 -1.1 1 -4.5 -1.3 -3.8 -2.5 0.4 -0.6 0.3 -0.8 -0.3 -0.5 -1.6 1 -3.1 -1.4 -3.8 -5.8 -0.8 -5.3 1.9 -10.4 6.5 -12.7 4.9 -2.5 14.5 -2.4 18.7 0.2 l3.3 2 -1.6 3.3 -1.6 3.4 -3.6 -1.9 c-4.7 -2.4 -9.4 -2.3 -11.6 0.1 -2.6 2.9 -1.7 6.3 2.2 8.1 1.8 0.9 2.9 2 2.5 2.5 -0.4 0.4 -0.2 0.5 0.5 0.1 2 -1.2 5.7 0.1 9.2 3 2.9 2.5 3 2.7 1.3 4.1 -1.7 1.4 -1.7 1.4 0.5 1 2.1 -0.5 2.2 -0.2 2.2 4.9 0 4.5 -0.5 5.9 -3 8.7 -4.2 4.9 -11 6.6 -18.5 4.8z"/>
  <path d="M204.4 519.3 c-0.8 -0.3 -1.1 -4.2 -0.8 -13.1 0.2 -7 0.4 -17 0.4 -22.2 l0 -9.6 13.5 0 13.5 0 0 3.8 0 3.8 -6.7 0 c-4.8 0 -6.4 -0.3 -5.3 -1 1.9 -1.2 0.6 -1.3 -1.8 -0.1 -0.9 0.5 -3 1.3 -4.7 1.8 -1.8 0.5 -3.1 1.6 -3.3 2.8 -0.3 1.7 -0.1 1.7 0.7 0.5 0.8 -1.1 1.1 -0.5 1.1 2.8 0 4.7 -0.7 4.5 11.3 4.2 4.4 -0.1 6.7 0.3 6.7 1 0 0.6 -0.3 0.9 -0.7 0.7 -0.5 -0.3 -0.8 0.6 -0.8 1.9 0 1.3 0.5 2.5 1 2.6 0.6 0.1 -3 0.4 -7.9 0.7 l-9 0.6 -0.2 3.5 c-0.5 7.9 -0.3 8 10.5 8 l9.6 0 0 3.9 0 3.8 -7.3 0.1 c-4.2 0 -7 -0.3 -6.7 -0.9 0.4 -0.5 0.1 -0.9 -0.4 -0.9 -0.6 0 -1.1 0.5 -1.1 1 0 0.6 -1.6 1 -3.6 1 -1.9 0 -3.3 -0.4 -3 -0.9 0.6 -1 -2.6 -1 -3.4 0 -0.3 0.3 -1 0.4 -1.6 0.2z"/>
  <path d="M247 497 l0 -23 4.4 0 c4.4 0 4.5 0.1 8.8 6.7 2.4 3.7 4.2 7.3 4 8 -0.2 0.7 0.3 1.2 1 1.1 0.8 -0.2 1.2 0.5 1 2 -0.2 1.2 0.2 2.2 0.8 2.2 0.6 0 0.8 -0.4 0.5 -1 -0.3 -0.5 -0.4 -1 -0.1 -1 0.3 0 2.2 2.9 4.3 6.5 2 3.6 4 6.5 4.4 6.5 0.3 0 0.5 -5.9 0.3 -13.2 -0.3 -9.4 0 -13.5 0.9 -14.6 1 -1.3 0.9 -1.4 -0.2 -0.8 -0.9 0.6 -1.2 0.5 -0.9 -0.5 0.3 -0.9 2 -1.4 4.6 -1.4 l4.2 0 0 23 c0 15 -0.4 22.5 -1 21.5 -0.8 -1.2 -1.3 -1.3 -3 -0.2 -3.3 2 -4.7 1.4 -7.9 -3.6 -3.3 -5.1 -3.8 -6.8 -1.9 -5.6 0.7 0.4 0.8 0.3 0.4 -0.5 -0.4 -0.6 -1.1 -0.9 -1.5 -0.6 -1 0.5 -6.4 -7.3 -6.4 -9.2 0 -0.7 -0.4 -1 -0.8 -0.8 -1 0.7 -2 -2.5 -1.2 -3.7 0.3 -0.6 0.1 -0.8 -0.4 -0.5 -0.6 0.4 -2.2 -1 -3.5 -3.1 l-2.3 -3.7 -0.3 16.3 -0.2 16.2 -4 0 -4 0 0 -23z"/>
  <path d="M311.9 517.3 c-4.9 -12.7 -10.8 -29.7 -10.4 -30.1 0.2 -0.2 -0.3 -1.1 -1.1 -2 -0.9 -0.8 -1.3 -2.3 -1.1 -3.4 0.3 -1 0.2 -1.6 -0.3 -1.3 -0.4 0.3 -1 -0.3 -1.3 -1.3 -0.2 -0.9 -0.8 -2.4 -1.1 -3.2 -0.5 -1.3 0.2 -1.6 3.4 -1.7 4 -0.2 5.5 1.2 2.3 2 -1.4 0.4 -1.2 0.5 0.5 0.6 1.2 0 2.2 -0.5 2.3 -1.1 0 -0.7 0.6 0.3 1.3 2.2 0.8 2.2 0.9 3.7 0.3 4.1 -0.6 0.4 -0.5 1.4 0.3 2.5 1 1.6 1.1 1.6 0.6 0.2 -0.3 -1 -0.2 -1.8 0.2 -1.8 0.4 0 2.7 5.9 5.1 13 2.4 7.2 4.8 13 5.3 13 0.5 0 0.7 -0.3 0.5 -0.7 -0.3 -0.5 2.1 -8.2 5.2 -17.3 6 -17.3 6.5 -17.9 11.8 -16.5 2.2 0.5 2.3 0.8 1.1 2.2 -0.9 1.2 -0.9 1.5 0 0.9 1.7 -1 1.6 -0.9 -2.1 8.8 -1.9 4.7 -3.7 8.3 -4.2 7.9 -0.4 -0.5 -0.5 -0.3 -0.1 0.4 0.3 0.6 -1.4 6.5 -3.8 13 l-4.4 11.8 -4.6 0.3 c-4.2 0.3 -4.7 0.1 -5.7 -2.5z"/>
  <path d="M351 497.1 l0 -22.9 3.5 0.8 c2.3 0.5 3.6 0.4 3.9 -0.4 0.2 -0.6 0.5 -0.3 0.5 0.6 0.1 0.9 -0.5 1.9 -1.1 2.1 -1 0.4 -1 0.6 0 0.6 0.9 0.1 1.2 5 1.2 21.1 l0 21 -4 0 -4 0 0 -22.9z m5.8 21.2 c-1 -0.2 -2.6 -0.2 -3.5 0 -1 0.3 -0.2 0.5 1.7 0.5 1.9 0 2.7 -0.2 1.8 -0.5z"/>
  <path d="M506 511.2 c0 -8.7 -0.1 -8.9 -4.8 -17.2 -2.7 -4.7 -6.2 -11 -8 -14 l-3.1 -5.6 3.7 0.1 c2.7 0 3.6 0.4 3.4 1.4 -0.2 1.1 0 1.2 1.1 0.3 1.1 -1 1.7 -0.9 2.4 0 2.1 2.6 5.4 9.9 4.8 10.8 -0.3 0.5 0.4 1.4 1.5 2 1.1 0.6 2 1.7 2 2.4 0 0.8 0.7 1.6 1.4 1.9 0.9 0.4 1.3 0.1 1.1 -0.6 -0.2 -0.7 1.7 -5 4.3 -9.7 4.3 -7.6 5.1 -8.5 8 -8.8 6.6 -0.7 6.6 0.6 0.6 10.6 -3 5 -6.2 9.2 -7 9.2 -0.7 0 -1.4 0.5 -1.4 1.1 0 0.5 0.5 0.7 1.1 0.3 0.6 -0.3 0.3 0.9 -0.6 2.7 -1.3 2.3 -1.8 6 -1.9 12.4 l-0.1 9.2 -4.2 0.2 -4.3 0.1 0 -8.8z"/>
  <path d="M565 497.1 l0 -22.9 13.7 0.1 13.7 0.2 0.1 3.8 0.1 3.7 -6.8 0 c-4.4 0 -6.7 -0.4 -6.3 -1 0.3 -0.5 -0.1 -1 -1 -1 -0.9 0 -1.3 0.5 -1 1 0.4 0.6 -0.5 1 -2 1 -2.5 0 -2.6 0.1 -2.3 5.8 l0.3 5.7 8.3 -0.1 8.2 0 0 3.5 0 3.6 -8.2 0 -8.3 0 -0.3 9.8 c-0.3 9.5 -0.7 10.8 -2.9 8.6 -0.8 -0.8 -1.3 -0.8 -1.7 0 -0.4 0.6 -1.4 1.1 -2.2 1.1 -1.2 0 -1.4 -3.6 -1.4 -22.9z"/>
  <path d="M606 496.9 l0 -22.9 4.5 0 4.5 0 -0.3 19 -0.2 19 9.3 0 c9.1 0 9.2 0 9.2 2.4 0 1.3 0.3 3.1 0.6 4 0.5 1.3 -0.1 1.6 -2.8 1.6 -1.9 0 -4 -0.6 -4.7 -1.2 -1.1 -1.1 -1.2 -1 -0.7 0 0.6 1 -1.3 1.3 -9.3 1.1 l-10.1 -0.1 0 -22.9z"/>
  <path d="M647 497.1 l0 -22.8 12.8 0.2 c9 0.1 12.6 0.5 12.4 1.3 -0.3 1.6 1.5 1.5 2.1 0 0.3 -0.7 0.6 0.5 0.6 2.7 0.1 2.9 -0.2 3.6 -0.9 2.5 -0.6 -0.9 -1 -1 -1 -0.3 0 0.8 -2.7 1.3 -8.7 1.5 l-8.8 0.3 -0.3 5.3 -0.3 5.2 8.3 0 8.3 0 0 3.5 0 3.5 -8.2 0 -8.3 0 0 6 0 6 10 0 10 0 0 4 0 4 -5 0 c-2.7 0 -5 -0.4 -5 -1 0 -0.5 -0.5 -1 -1.1 -1 -0.5 0 -0.7 0.5 -0.4 1 0.4 0.6 -2.5 1 -7.9 1 l-8.6 0 0 -22.9z m26.7 17.2 c-0.3 -1 -0.5 -0.2 -0.5 1.7 0 1.9 0.2 2.7 0.5 1.8 0.2 -1 0.2 -2.6 0 -3.5z"/>
  <path d="M699 502.3 c0.1 -9.8 0.1 -18.5 0.1 -19.3 -0.1 -1.3 -1.2 -1.5 -6.4 -1.2 l-6.3 0.4 0.4 -4 0.4 -3.9 15.9 0.2 c8.8 0.1 16.1 0.4 16.3 0.6 0.2 0.2 0.7 1.9 1.1 3.7 0.7 3.2 0.6 3.2 -3.2 3.2 -2.8 0 -3.4 -0.3 -2.3 -1 0.9 -0.6 1 -1 0.3 -1 -0.6 0 -1.5 0.5 -1.8 1 -0.3 0.6 -1.6 1 -2.9 1 -1.3 0 -3.1 0.9 -4.1 2 -1 1.1 -1.3 2 -0.7 2 0.6 0 1.3 -0.6 1.5 -1.2 0.3 -0.7 0.6 6.9 0.6 17 0.1 14.4 -0.2 18.2 -1.1 17.5 -1.9 -1.1 -3.9 -1.3 -3.2 -0.2 0.3 0.5 -0.7 0.9 -2.1 0.9 l-2.6 0 0.1 -17.7z"/>
  <path d="M733.7 519.3 c-0.4 -0.4 -0.7 -10.7 -0.7 -22.9 l0.1 -22.3 13.9 0.2 13.9 0.2 -0.1 3.7 0 3.8 -9.9 0 -9.9 0 0 5.5 0 5.5 9.3 0 c7.9 0.1 8.9 0.3 7.5 1.4 -1.9 1.4 -2.5 3.2 -0.8 2.1 0.6 -0.3 1 0.3 1 1.4 0 1.8 -0.7 2 -8.2 2.3 l-8.3 0.3 0 5.9 0 6 10 -0.3 10 -0.2 0.2 3.9 0.2 4 -13.7 0.1 c-7.6 0.1 -14.1 -0.1 -14.5 -0.6z"/>
  <path d="M351 468.9 c0 -1 7.4 -8.9 8.3 -8.9 0.5 0 0.6 0.3 0.3 0.8 -0.2 0.4 0.3 1.6 1.1 2.7 1 1.3 1.4 1.4 1 0.4 -0.3 -0.9 0.1 -1.6 0.9 -1.6 2.3 0 1.6 1.4 -2.3 4.6 -2.5 2.1 -4.7 3 -6.5 2.9 -1.6 -0.1 -2.8 -0.5 -2.8 -0.9z"/>
  <path d="M827.5 432.6 c-5 -1.2 -14.7 -6 -16.4 -8 -0.6 -0.7 0.6 -3.8 3.1 -8.3 3.5 -6.5 4.1 -7.1 5.8 -6.1 1.3 0.8 1.6 1.6 1 2.3 -0.7 0.8 -0.5 1.2 0.5 1.2 0.8 0 1.5 -0.5 1.5 -1 0 -0.5 1.1 -0.2 2.5 0.7 1.3 0.9 5.4 2.3 8.9 3.1 11.2 2.6 18.7 -0.7 20.6 -8.9 0.4 -2.1 0.6 -3.5 0.3 -3.2 -0.3 0.2 -1.5 -0.6 -2.7 -2 -1.1 -1.3 -5.1 -3.7 -8.8 -5.2 -3.8 -1.6 -6.5 -3.2 -6 -3.7 0.4 -0.4 0.1 -0.5 -0.6 -0.1 -1.5 0.9 -8.3 -1.4 -7.6 -2.6 0.3 -0.4 -0.1 -0.5 -0.9 -0.3 -2.1 0.9 -10.5 -6.2 -12.9 -10.8 -1.7 -3.2 -2.2 -6 -2.2 -11.7 0 -6.5 0.4 -8.3 2.9 -12.9 5.1 -9.3 13.8 -13.4 28.5 -13.4 8.2 0 10.5 0.4 17 3 4.1 1.6 7.4 3.5 7.3 4.1 -0.2 0.6 0.4 0.9 1.2 0.6 1 -0.4 0.3 2 -2.1 7.3 -2 4.3 -3.8 8 -4 8.2 -0.2 0.2 -2.5 -0.8 -5.2 -2.2 -10.5 -5.7 -21.6 -5.4 -25.3 0.6 -1.1 1.9 -1.6 4 -1.2 5.2 0.3 1.1 0.6 2.5 0.6 3.2 0 0.7 0.3 1.1 0.6 1.1 0.3 -0.1 2.6 0.8 5.1 1.9 2.5 1.2 7.9 3.5 12 5.2 9.2 3.8 14.1 6.7 13.8 8.2 -0.2 0.6 0.3 1.4 1.1 1.7 0.9 0.3 1.1 0 0.6 -0.9 -0.5 -0.8 0.1 -0.6 1.3 0.5 3.8 3.3 6.2 9.7 6.2 16.5 0 3.5 -0.4 6 -0.9 5.7 -0.5 -0.4 -0.7 0.2 -0.4 1.3 0.6 2.5 -2.8 8.9 -6.9 12.8 -3.9 3.8 -12.2 7.7 -14.9 7 -1 -0.3 -1.9 -0.1 -1.9 0.4 0 1.3 -15.6 1 -21.5 -0.5z m45.2 -30.3 c-0.2 -1.6 -0.4 -0.3 -0.4 2.7 0 3 0.2 4.3 0.4 2.8 0.2 -1.6 0.2 -4 0 -5.5z"/>
  <path d="M900.5 432.6 c-6.3 -1.6 -15.8 -6.4 -15 -7.6 0.4 -0.6 -0.2 -0.7 -1.2 -0.3 -1.6 0.6 -1.7 0.5 -0.3 -1.2 1.1 -1.4 1.2 -1.7 0.1 -1.1 -0.9 0.6 -1.2 0.5 -0.9 -0.5 0.3 -0.8 1.1 -1.3 1.7 -1.1 0.7 0.1 1 -0.2 0.6 -0.7 -0.3 -0.6 0.6 -3.4 2.1 -6.3 2.5 -4.9 2.7 -5.1 4.1 -3.2 0.8 1 1.9 1.8 2.4 1.6 0.5 -0.1 2.6 0.6 4.7 1.7 2.1 1.1 6.4 2.4 9.6 3 10.9 2 18.6 -2 18.6 -9.6 0 -4.8 -3.1 -7.4 -13.1 -11.3 -12.8 -4.9 -16.6 -6.8 -20.4 -10.2 -7.2 -6.3 -9.8 -15.7 -7 -25.3 4 -14 18.9 -21.4 37.2 -18.5 7.6 1.2 17.9 5.2 17.6 6.8 -0.2 0.6 0.4 0.9 1.2 0.6 2 -0.8 2 -0.6 -1.6 7.2 -3.5 7.9 -4.4 8.8 -7.3 6.9 -4.1 -2.7 -11.2 -4.6 -17.8 -4.9 -3.7 -0.1 -6.5 0.1 -6.2 0.6 0.3 0.4 0 0.8 -0.6 0.8 -0.5 0 -1.9 1.4 -2.9 3.1 -1.5 2.4 -1.7 3.8 -1 5.7 0.7 1.7 0.6 2.9 -0.3 4.1 -1 1.3 -1 1.4 0.1 0.5 1 -0.9 2.3 -0.6 5.4 1.2 2.3 1.3 6.6 3.1 9.4 4 2.9 0.9 5 2.1 4.7 2.6 -0.3 0.5 0 0.9 0.7 0.7 3.2 -0.4 5 0.1 4.3 1.3 -0.4 0.7 -0.3 0.8 0.5 0.4 1 -0.7 8.1 2.9 8.1 4 0 0.3 -0.4 0.2 -1 -0.1 -0.5 -0.3 -1 -0.2 -1 0.4 0 0.6 1.1 1.3 2.5 1.7 2.9 0.7 6.1 4.8 7 9 0.5 2.2 0.4 2.5 -0.4 1.4 -0.9 -1.3 -1.1 -1.2 -1.1 0.4 0 1 0.7 2.4 1.6 3 1.3 1 1.4 2.1 0.5 7.5 -1.7 10.7 -8.7 18.4 -19.4 21.6 -6 1.8 -19.2 1.8 -26.2 0.1z"/>
  <path d="M548.5 432.2 l-8.1 -0.3 -2.7 -4.5 c-1.5 -2.5 -2.4 -5.1 -2.1 -5.7 0.4 -0.7 0.4 -0.9 -0.1 -0.5 -1.1 1.1 -4.7 -5 -3.9 -6.5 0.4 -0.7 0.3 -0.9 -0.1 -0.5 -0.9 0.9 -5.6 -6.3 -4.9 -7.4 0.3 -0.5 0.1 -0.8 -0.5 -0.8 -0.5 0 -1.3 -0.9 -1.6 -2 -0.3 -1.1 -1 -2 -1.5 -2 -0.5 0 -3.4 4.7 -6.5 10.5 -3.4 6.4 -6.1 10.3 -6.7 9.9 -0.6 -0.4 -0.8 -0.2 -0.4 0.4 0.8 1.3 -2.8 7.5 -3.8 6.5 -0.4 -0.4 -0.4 0.1 0 1 0.6 1.7 -0.2 1.8 -10.5 1.6 l-11.1 -0.1 3 -5.2 c1.6 -2.8 3.5 -5 4.1 -4.8 0.6 0.1 0.8 -0.2 0.4 -0.7 -0.8 -1.3 12.7 -23.1 14.3 -23.1 0.7 0 1 -0.5 0.7 -1.1 -0.4 -0.5 0.5 -2.8 2 -5 l2.6 -4.1 -2.7 -4.1 c-1.5 -2.3 -2.7 -4.7 -2.7 -5.4 0 -0.7 -0.4 -1 -0.8 -0.8 -0.9 0.6 -2.1 -2.4 -1.3 -3.6 0.3 -0.5 0.1 -0.8 -0.5 -0.7 -1.3 0.4 -8.1 -10.3 -7.4 -11.6 0.3 -0.5 0.1 -0.6 -0.5 -0.2 -1.2 0.7 -1.6 -0.5 -1.3 -3.3 0.2 -0.7 -0.2 -1 -0.7 -0.7 -0.6 0.3 -2.4 -1.7 -4.2 -4.5 -1.7 -2.8 -2.6 -4.8 -2.1 -4.4 0.7 0.3 0.8 0 0.5 -0.9 -0.3 -0.9 -0.9 -1.4 -1.3 -1.2 -0.4 0.3 -1.3 -0.4 -2 -1.6 -1.2 -1.9 -1.1 -2 10.4 -1.6 8.9 0.2 11.8 0.6 12.5 1.8 1.3 2 1.3 3.3 0 2.5 -0.6 -0.3 -0.7 0.1 -0.3 1 0.4 1.2 0.8 1.4 1.3 0.4 1 -1.5 4.9 6 4.2 8 -0.3 0.8 0 1.1 0.6 0.7 1.3 -0.8 5.5 6.8 4.4 7.9 -0.4 0.5 -0.2 0.5 0.5 0.2 0.7 -0.4 1.8 1 3 3.8 1 2.5 2 4.5 2.3 4.5 0.3 0 1.6 -2.1 3 -4.7 1.3 -2.7 5.2 -9.6 8.7 -15.4 l6.3 -10.7 11.5 0 c10.9 0.1 11.4 0.2 10.4 1.9 -0.5 1.1 -1.2 1.9 -1.5 1.9 -0.3 0 -0.2 -0.5 0.2 -1.2 0.4 -0.7 0.3 -0.8 -0.5 -0.4 -0.6 0.4 -0.9 1.2 -0.5 1.7 0.3 0.6 -0.5 2.7 -1.9 4.7 -1.3 2 -5.6 8.7 -9.4 14.9 -3.9 6.2 -7.2 11 -7.5 10.8 -0.3 -0.3 -0.5 0.1 -0.5 0.8 0 1.7 -3.4 6.8 -4.2 6.3 -0.4 -0.3 -0.7 0.5 -0.7 1.7 0 1.2 2.2 5.7 4.9 10.1 2.6 4.3 4.3 7.5 3.6 7.1 -0.7 -0.5 -1 -0.3 -0.7 0.6 0.3 0.8 1 1.4 1.6 1.4 1.5 0 8.4 11.3 8.6 14 0 1.1 0.7 2 1.4 2 1.3 0 3.2 2.3 3.2 3.8 0 0.5 -0.6 0.5 -1.2 0.1 -0.8 -0.4 -1 -0.3 -0.5 0.2 0.5 0.5 1.4 0.9 2 0.9 0.7 0 1.1 1.2 0.9 2.5 -0.1 1.8 0 2.1 0.7 1.1 0.7 -1.1 1.1 -1 1.9 0.5 1.1 2.1 0.9 2.2 -14.3 1.6z"/>
  <path d="M579.8 432.2 l-2.8 -0.3 0 -44.4 0 -44.3 13.3 -0.1 c16.7 -0.2 31.7 1.4 37.1 3.7 5.7 2.6 10.3 6.7 12.9 11.6 1.9 3.5 2.2 5.7 2.2 14.6 0 11.4 -1 14.2 -7.2 20.5 -3.5 3.5 -12.8 7.9 -15.4 7.2 -1 -0.3 -1.7 -0.1 -1.4 0.3 0.5 0.8 -14 2.4 -18.5 2 -1.4 -0.1 -2.9 -0.2 -3.5 -0.1 -0.6 0.1 -0.9 5.5 -0.7 14.8 l0.3 14.8 -6.8 0 c-3.7 0 -8 -0.1 -9.5 -0.3z m35.8 -47.5 c1.6 -0.8 3.8 -2.4 4.8 -3.6 2.6 -2.9 3.3 -10.9 1.3 -14.8 -0.9 -1.7 -1.4 -3.3 -1.2 -3.5 0.3 -0.3 -0.1 -0.5 -0.7 -0.6 -3.9 -0.4 -10.7 -2.9 -10.1 -3.7 0.4 -0.5 0 -0.3 -0.9 0.4 -1.1 0.8 -3.7 1.2 -7 0.9 l-5.3 -0.3 -0.3 13.9 -0.3 13.9 8.4 -0.5 c4.6 -0.3 9.6 -1.2 11.3 -2.1z"/>
  <path d="M656 387.6 l0 -44.9 21.3 0.6 c21 0.6 32.7 2.4 31.2 4.7 -0.4 0.6 0.1 0.7 1.1 0.3 1.3 -0.5 1.5 -0.3 0.9 0.7 -0.5 0.9 -0.4 1.1 0.3 0.6 2.7 -1.6 11.3 7.8 9.6 10.5 -0.4 0.8 -0.3 0.9 0.4 0.5 0.7 -0.4 1.2 -0.3 1.2 0.3 0 0.5 0.3 1.7 0.6 2.5 0.5 1.2 0.2 1.5 -1.2 1.1 -1.5 -0.5 -1.4 -0.3 0.4 1.1 1.8 1.3 2.2 2.6 2.2 6.8 -0.1 6.2 -3 15.2 -4.8 14.8 -0.8 -0.1 -1 0.2 -0.7 0.8 0.8 1.4 -2.4 5.2 -3.7 4.4 -0.4 -0.3 -0.7 0 -0.6 0.7 0.2 1 -2.3 2.8 -8 5.6 -0.2 0 1.5 3.1 3.8 6.7 2.3 3.7 3.8 7.1 3.4 7.7 -0.4 0.8 -0.3 0.9 0.4 0.5 1.1 -0.7 4.5 4.6 3.7 5.8 -0.3 0.3 -0.2 0.4 0.2 0.1 0.3 -0.3 1.6 1.1 2.8 3.2 2.2 3.5 2.3 7.3 0.2 7.3 -0.6 0 -0.8 0.3 -0.5 0.6 0.4 0.3 1.5 0.1 2.7 -0.5 1.7 -0.9 2.2 -0.8 3.2 1 0.8 1.6 0.8 2 -0.1 1.4 -0.7 -0.4 -5.8 -0.7 -11.4 -0.7 l-10.2 0.1 -8.9 -14.9 -8.9 -15 -5.8 0 -5.8 0 0 15.3 0 15.3 -9.5 0 -9.5 -0.1 0 -44.9z m17.7 18.2 c-0.2 -1.3 -0.4 -0.5 -0.4 1.7 -0.1 2.2 0.1 3.2 0.4 2.3 0.2 -1 0.2 -2.8 0 -4z m24.5 -22.3 c6.6 -4.4 7.3 -15.6 1.3 -20.3 -1.3 -1.1 -2.2 -2.2 -1.9 -2.5 0.3 -0.3 0 -0.8 -0.7 -1.3 -0.7 -0.4 -1 -0.3 -0.6 0.2 0.3 0.5 -2.9 0.8 -7.6 0.5 -4.5 -0.2 -8.3 -0.7 -8.5 -1.2 -0.2 -0.5 -1 -0.9 -1.8 -0.9 -0.9 0 -1.2 0.5 -0.9 1 0.3 0.6 -0.1 1 -0.9 1 -1.4 0 -1.6 2 -1.6 13.6 l0 13.7 9.8 -0.7 c7.9 -0.5 10.4 -1.1 13.4 -3.1z m-24.5 -17.7 c-0.2 -1.3 -0.4 -0.5 -0.4 1.7 -0.1 2.2 0.1 3.2 0.4 2.3 0.2 -1 0.2 -2.8 0 -4z"/>
  <path d="M740.2 389 c0.1 -23.9 0.3 -44.1 0.6 -44.7 0.6 -1.7 51.3 -1.9 54.4 -0.2 1.5 0.8 1.9 0.8 1.4 0 -0.4 -0.6 -0.1 -1.1 0.6 -1.1 0.8 0 1.4 0.9 1.4 2 0 1.1 -0.3 2 -0.6 2 -0.3 0 -0.3 2.6 0 5.8 0.8 8.1 0.4 9.3 -2.5 8.2 -1.2 -0.5 -2.5 -0.6 -2.8 -0.3 -0.3 0.3 -7.9 0.6 -16.9 0.6 l-16.3 0.2 -0.3 9.3 c-0.2 8.2 -0.1 9.2 1.5 9.3 1 0 7.9 0.2 15.3 0.4 7.4 0.1 14.5 0.3 15.8 0.4 2.1 0.1 2.2 0.5 2.1 7.9 -0.1 6 -0.3 6.9 -0.9 4.2 l-0.7 -3.5 -0.2 3.3 -0.1 3.2 -16.5 0 -16.5 0 0 10 0 10 21 0 21 0 0 8.3 0 8.2 -30.5 0 -30.5 0 0.2 -43.5z"/>
  <path d="M302 249.3 c0 -1.5 -0.2 -1.5 -0.9 -0.4 -0.8 1.2 -1.4 1.3 -3.6 0.3 -1.4 -0.7 -2.3 -1.7 -2 -2.2 0.4 -0.6 0.1 -0.9 -0.6 -0.8 -1.6 0.4 -2.8 -5.4 -2.3 -11.1 1.1 -11.6 5.5 -49.8 5.9 -51.8 0.6 -2.5 0.3 -2.5 -37.5 -4.3 -51 -2.3 -67.6 -3.2 -68.8 -3.6 -0.7 -0.2 -8.1 -0.6 -16.5 -0.9 -8.4 -0.3 -21 -1 -28.2 -1.5 -7.1 -0.5 -20.4 -1.2 -29.5 -1.6 -9.1 -0.3 -17.6 -0.8 -19 -0.9 -1.4 -0.1 -5.3 -0.3 -8.7 -0.4 -3.8 0 -6.3 -0.5 -6.3 -1.2 0 -0.7 1.7 -0.9 5.1 -0.4 3.8 0.5 5 0.4 4.5 -0.4 -1.1 -1.7 1.7 -0.9 3.1 0.9 1.2 1.3 1.3 1.3 1 0 -0.2 -0.8 -0.2 -1.2 0 -0.7 0.3 0.4 1.2 0.7 2.1 0.7 1.4 0 1.4 -0.2 0.3 -0.9 -1.4 -0.9 18.8 -2.3 36.1 -2.5 5.4 -0.1 9.8 -0.5 9.8 -0.9 0 -0.5 4.7 -0.7 10.4 -0.5 5.7 0.2 10.2 0 9.9 -0.4 -0.2 -0.5 1.1 -0.8 2.9 -0.8 3.6 0 19.8 -0.9 78.8 -4.5 13.5 -0.8 36.9 -2.1 52 -3 15.1 -0.8 31.1 -1.7 35.5 -2 29.8 -2 78.7 -4.6 80.3 -4.4 2 0.3 3.3 -0.2 2.7 -1.1 -0.3 -0.5 -3.3 -1 -6.6 -1 -4.8 0 -5.9 -0.3 -5.9 -1.7 0 -0.9 -0.3 -1.4 -0.6 -1.1 -0.3 0.4 -1.9 0.2 -3.6 -0.3 -1.7 -0.4 -3.6 -0.5 -4.2 -0.1 -0.6 0.4 0.2 1 1.9 1.3 2 0.5 1.6 0.5 -1.4 0.3 -2.4 -0.2 -6.1 -0.4 -8.2 -0.4 -2.8 0 -3.9 -0.4 -3.9 -1.5 0 -0.8 -0.4 -1.5 -1 -1.5 -0.5 0 -1 0.7 -1 1.5 0 0.8 -0.5 1.5 -1.1 1.5 -0.5 0 -0.8 -0.3 -0.6 -0.7 0.3 -0.5 -3.8 -0.7 -9.1 -0.6 -5.4 0.1 -8.7 -0.1 -7.4 -0.5 1.3 -0.4 -4.3 -0.8 -12.5 -0.8 -8.1 -0.1 -32.1 -1.4 -53.3 -2.8 -48.1 -3.3 -64.2 -4.3 -80 -5 -6.9 -0.3 -21.5 -1.2 -32.5 -2 -11 -0.8 -24.8 -1.8 -30.7 -2.2 -8.7 -0.5 -10.8 -0.9 -11.1 -2.3 -0.4 -1.3 -0.5 -1.3 -0.6 -0.1 -0.1 1.3 -1.8 1.4 -11.8 0.8 -6.5 -0.3 -13.7 -0.7 -16.1 -0.7 -2.4 -0.1 -4.1 -0.5 -3.8 -0.9 0.3 -0.5 -4.7 -0.8 -11 -0.8 -8.7 0.1 -11.7 -0.2 -12.3 -1.3 -0.5 -0.8 -1 -0.9 -1.2 -0.3 -0.3 0.7 -4.1 0.9 -11.6 0.5 -6.2 -0.3 -11 -1 -10.7 -1.4 0.3 -0.5 -0.4 -0.9 -1.6 -0.9 -1.3 0 -1.9 0.4 -1.4 1.2 0.5 0.7 0.3 0.8 -0.6 0.3 -0.7 -0.4 -5.1 -0.7 -9.9 -0.6 -4.7 0.1 -8.3 0 -8.1 -0.3 0.8 -0.7 23.4 -2.4 77 -5.6 9.6 -0.6 24.5 -1.5 33 -2 40.9 -2.6 92.8 -5.6 110 -6.5 17.9 -1 75.3 -4.4 100.5 -6.1 13.2 -0.9 31.4 -1.7 40.5 -1.7 9.1 -0.1 14 -0.4 11 -0.7 l-5.5 -0.5 7.9 -0.8 c4.3 -0.4 9.7 -0.7 11.8 -0.7 7.1 0 3 -1.7 -5.3 -2.2 -4.6 -0.3 -8.4 -1 -8.8 -1.7 -0.5 -0.8 -4.8 -1.1 -14.7 -0.9 -11.7 0.3 -36.7 -0.9 -56.9 -2.7 -2.7 -0.2 -10.4 -0.7 -17 -1.1 -6.6 -0.4 -12.5 -1 -13.1 -1.5 -0.6 -0.5 -1.3 -0.6 -1.7 -0.3 -0.5 0.5 -41.1 -1.1 -51.5 -2.1 -2 -0.2 -8.9 -0.6 -15.2 -1 -6.3 -0.3 -14.4 -0.8 -18 -1 -3.6 -0.2 -15.9 -0.9 -27.5 -1.5 -15.3 -0.9 -21.6 -1.6 -23.4 -2.7 -1.4 -0.9 -2 -1 -1.6 -0.3 0.6 0.9 -2.7 1 -14.1 0.5 -8.2 -0.4 -15.2 -0.9 -15.6 -1.2 -0.4 -0.2 -4.7 -0.5 -9.5 -0.7 -4.8 -0.2 -20.1 -0.9 -34 -1.7 -24.2 -1.3 -31.4 -2.4 -18.1 -2.8 3.5 -0.1 21.6 -0.8 40.3 -1.7 56.8 -2.5 74.6 -3.1 83.7 -3 4.9 0 8.8 -0.2 8.8 -0.5 0 -0.3 9.1 -0.9 20.3 -1.3 11.1 -0.4 23.1 -0.9 26.7 -1.1 3.6 -0.3 15.3 -0.7 26.1 -1.1 10.8 -0.3 20.1 -0.9 20.6 -1.3 0.5 -0.3 1.8 -9.4 2.8 -20.1 1 -10.7 2.3 -21.1 2.9 -23 0.6 -2 2.5 -4.4 4.5 -5.7 l3.3 -2.3 128 0 c86.4 0 128.6 0.4 129.9 1.1 1.1 0.5 1.7 1.4 1.4 2 -0.4 0.5 -0.1 0.8 0.6 0.7 0.7 -0.2 1.9 1 2.7 2.5 1.2 2.4 1.1 5.1 -0.4 19.2 -0.9 9 -2 16.2 -2.5 16 -0.4 -0.3 -0.5 0.4 -0.2 1.5 0.5 2 -3.4 40.3 -4.4 43 -0.3 0.8 -0.5 3.1 -0.4 5.1 0.2 2.5 -0.3 3.8 -1.3 4.2 -1 0.4 -1.6 1.7 -1.5 3.4 l0.1 2.8 0.8 -2.5 c0.8 -2.4 0.8 -2.4 0.9 0.6 0.1 1.7 -0.2 3.3 -0.5 3.7 -0.4 0.3 -0.7 2.8 -0.9 5.4 -0.1 2.6 -0.5 7.5 -0.8 10.8 -0.4 3.3 -1.6 15 -2.8 26 -1.5 13.7 -2.6 20.3 -3.5 21.1 -0.8 0.6 -1.3 2.4 -1.3 4 l0.1 2.9 0.8 -3 0.8 -3 0.1 3.1 c0 1.7 -0.2 3.4 -0.6 3.8 -0.4 0.4 -0.6 2.5 -0.4 4.6 0.1 2.2 -0.1 4.4 -0.4 5.1 -0.4 0.6 -0.8 2.9 -1 5.2 -0.8 12.7 -1.8 21.6 -2.4 21.3 -0.3 -0.2 -0.7 3.4 -0.8 8 -0.2 10.2 -2.2 15.1 -7.3 17.6 -3.2 1.6 -7.9 1.8 -54.5 1.7 -28 0 -50.5 -0.3 -49.9 -0.5 0.7 -0.3 0.8 -2.7 0.2 -7.7 -0.5 -3.9 -0.8 -8.4 -0.5 -9.9 0.2 -1.5 0 -2.5 -0.5 -2.2 -0.4 0.3 -0.8 -0.3 -0.8 -1.3 0 -1 -1.2 -4.9 -2.6 -8.8 -1.3 -3.8 -2.6 -7.4 -2.7 -8 -0.1 -0.5 -0.5 -1.2 -0.9 -1.5 -0.3 -0.3 -0.8 -1.1 -1 -1.9 -0.2 -0.7 -1.5 -2.8 -3.1 -4.5 -1.5 -1.7 -2.5 -3.7 -2.2 -4.4 0.3 -0.7 0.1 -1.1 -0.4 -0.8 -1.1 0.7 -5.3 -3.9 -4.4 -4.8 0.5 -0.4 0.3 -0.6 -0.2 -0.4 -1.3 0.4 -5.6 -2.7 -5 -3.5 0.3 -0.4 0.2 -0.5 -0.1 -0.3 -0.3 0.2 -3.1 -1.1 -6.1 -3 -3.1 -1.9 -6.1 -3.4 -6.6 -3.4 -0.4 0 -0.5 -0.5 -0.1 -1.2 0.5 -0.8 0.2 -0.9 -0.9 -0.5 -0.9 0.3 -3.8 0 -6.4 -0.8 -8.6 -2.6 -17.3 -2.9 -28 -0.9 -5.4 1 -10.4 1.7 -11.2 1.5 -0.7 -0.1 -1 0.2 -0.6 0.8 0.3 0.6 -0.1 1.1 -1 1.1 -1 0 -1.3 -0.5 -0.9 -1.2 0.4 -0.7 0.3 -0.8 -0.5 -0.4 -0.6 0.4 -0.9 1.1 -0.6 1.5 0.6 1.1 -4.4 3.3 -5.8 2.5 -0.7 -0.4 -0.9 -0.4 -0.5 0.1 0.9 1 -4.9 4.8 -6.2 4 -0.5 -0.3 -1.2 0 -1.6 0.6 -0.5 0.8 -0.2 1 0.7 0.5 0.8 -0.4 0.1 0.3 -1.6 1.6 -5.7 4.3 -13.6 12.2 -17.1 17 -2 2.6 -4 4.7 -4.6 4.5 -0.6 -0.1 -1.3 0.5 -1.5 1.3 -0.4 1.3 -0.3 1.3 0.6 0 2.4 -3.4 0.9 0.3 -2.4 5.7 -1.9 3.2 -3.5 6.4 -3.5 7.1 0 0.6 -0.7 1.2 -1.5 1.2 -0.8 0 -1.5 0.5 -1.5 1.1 0 0.5 0.4 0.8 0.9 0.5 0.4 -0.3 0 2 -1.1 5.2 -1 3.1 -2.2 7.6 -2.5 10 -0.6 4.6 -2.1 5.8 -1.8 1.5 0.1 -1.6 0 -2 -0.2 -1 -0.2 0.9 -0.9 1.7 -1.4 1.7 -0.6 0 -0.7 0.5 -0.4 1 0.4 0.6 -1.7 1 -5.4 1 -5.1 0 -6.1 -0.3 -6.1 -1.7z m266.7 -58 c-0.3 -1 -0.5 -0.2 -0.5 1.7 0 1.9 0.2 2.7 0.5 1.8 0.2 -1 0.2 -2.6 0 -3.5z m-367.9 -17 c-1 -0.2 -2.8 -0.2 -4 0 -1.3 0.2 -0.5 0.4 1.7 0.4 2.2 0.1 3.2 -0.1 2.3 -0.4z m175.5 -32 c-1.3 -0.2 -3.5 -0.2 -5 0 -1.6 0.2 -0.5 0.4 2.2 0.4 2.8 0 4 -0.2 2.8 -0.4z m-132.5 -8 c-1 -0.2 -2.6 -0.2 -3.5 0 -1 0.3 -0.2 0.5 1.7 0.5 1.9 0 2.7 -0.2 1.8 -0.5z m-123 -8 c-1 -0.2 -2.6 -0.2 -3.5 0 -1 0.3 -0.2 0.5 1.7 0.5 1.9 0 2.7 -0.2 1.8 -0.5z m36 -9 c-1 -0.2 -2.6 -0.2 -3.5 0 -1 0.3 -0.2 0.5 1.7 0.5 1.9 0 2.7 -0.2 1.8 -0.5z m266.2 -22.1 c0 -0.4 -1.2 -0.8 -2.7 -0.9 -2.4 -0.1 -2.5 -0.1 -0.8 0.7 2.6 1.1 3.5 1.2 3.5 0.2z m-68.2 -4.9 c-1 -0.2 -2.8 -0.2 -4 0 -1.3 0.2 -0.5 0.4 1.7 0.4 2.2 0.1 3.2 -0.1 2.3 -0.4z m-67 -4 c-1.6 -0.2 -4 -0.2 -5.5 0 -1.6 0.2 -0.3 0.4 2.7 0.4 3 0 4.3 -0.2 2.8 -0.4z m-132 -8 c-1 -0.2 -2.6 -0.2 -3.5 0 -1 0.3 -0.2 0.5 1.7 0.5 1.9 0 2.7 -0.2 1.8 -0.5z m79 -9 c-1 -0.2 -2.6 -0.2 -3.5 0 -1 0.3 -0.2 0.5 1.7 0.5 1.9 0 2.7 -0.2 1.8 -0.5z m21.2 -0.5 c0 -0.5 -1.6 -0.8 -3.5 -0.8 -1.9 0 -3.5 0.3 -3.5 0.8 0 0.4 1.6 0.7 3.5 0.7 1.9 0 3.5 -0.3 3.5 -0.7z"/>
  <path d="M673.6 248.7 c-0.8 -3.2 1.7 -13.7 5.5 -22.9 11.2 -27.4 37.6 -46.9 65.6 -48.5 8.4 -0.5 9.3 -0.4 9.3 1.2 0 1.2 -0.6 1.6 -2 1.2 -1.1 -0.3 -1.8 -0.2 -1.6 0.2 0.3 0.4 -2.1 1.3 -5.2 2 -3.1 0.7 -9.8 3.2 -14.9 5.6 -5 2.4 -9.4 4.1 -9.7 3.9 -0.3 -0.2 -0.4 -0.1 -0.1 0.3 0.8 1 -4.7 4.3 -5.9 3.6 -0.6 -0.3 -0.8 -0.3 -0.4 0.1 0.6 0.7 -12.3 13.7 -14.3 14.4 -0.5 0.2 -0.9 0.7 -0.9 1.2 0 1.6 -7.2 11.5 -8.8 12.2 -1 0.4 -1.2 0.7 -0.5 0.7 0.8 0.1 0.5 1.7 -0.9 5.1 -1.1 2.7 -2.4 4.7 -2.8 4.5 -0.5 -0.3 -0.6 0.4 -0.3 1.5 0.4 1.5 0 2 -1.3 2.1 -1.1 0 -1.4 0.3 -0.6 0.6 1.8 0.7 1.5 2.3 -0.5 2.3 -1.1 0 -1.4 0.3 -0.7 0.8 1.6 1 0.5 7.2 -1.2 7.2 -1.7 0 -1.8 1.7 -0.1 2.3 0.6 0.3 -0.3 0.6 -2 0.6 -2.5 0.1 -3.3 -0.3 -3.4 -1.6 0 -1.6 -0.1 -1.5 -0.8 0.2 -0.7 1.7 -0.8 1.7 -1.5 -0.8z"/>
  <path d="M410.8 95.3 c1.2 -0.2 3 -0.2 4 0 0.9 0.3 -0.1 0.5 -2.3 0.4 -2.2 0 -3 -0.2 -1.7 -0.4z"/>
 </g>
 <g fill="#5c6163">
  <path d="M257.2 433.4 c0.3 -0.5 -1.3 -1 -3.6 -1 -4.9 -0.1 -15 -4.9 -14 -6.6 0.4 -0.6 0.3 -0.8 -0.4 -0.4 -1.4 0.8 -8.4 -5.3 -7.5 -6.7 0.3 -0.6 0.1 -0.7 -0.5 -0.3 -1.3 0.8 -3.5 -2.8 -2.4 -3.9 0.4 -0.5 0.2 -0.5 -0.5 -0.1 -1.5 0.8 -5.7 -6.9 -4.9 -9 0.3 -0.8 0.2 -1.3 -0.3 -1 -1.6 1 -3.4 -12.2 -2.7 -19.2 1 -9.6 3.2 -16.2 7.5 -22.9 4.3 -6.7 11.7 -13.7 13.3 -12.7 0.6 0.4 0.8 0.3 0.5 -0.3 -0.7 -1 8.6 -5.7 13.3 -6.7 10 -2.2 23.3 -1 31.7 2.9 2.9 1.3 5.3 2.7 5.3 3 0 0.3 -0.9 0.1 -2 -0.5 -1.6 -0.8 -1.8 -0.8 -1.4 0.4 0.3 0.8 1.6 1.3 2.9 1.1 2.7 -0.3 6 2.7 5.2 4.7 -0.3 0.7 -2.6 3.9 -5.2 7.1 l-4.6 5.8 -2.6 -2.1 c-4.1 -3.2 -12.4 -5.2 -20.2 -4.8 -3.8 0.2 -6.7 0.6 -6.4 1.1 0.2 0.4 -0.2 0.7 -1 0.7 -2.6 0 -11 8.4 -13.4 13.5 -1.4 2.7 -2.2 3.9 -2 2.7 0.3 -1.3 0.3 -2.1 -0.1 -1.7 -0.4 0.4 -0.7 5.4 -0.8 11.1 0 5.7 0.2 10.2 0.4 9.9 0.3 -0.3 1.2 0.9 1.9 2.7 0.9 2.2 1 3.4 0.3 3.6 -0.5 0.2 -0.7 0.8 -0.4 1.4 0.4 0.6 0.9 0.6 1.3 0.1 0.3 -0.5 2.5 1.1 4.8 3.4 2.4 2.4 3.8 4.3 3.3 4.3 -0.5 0 -1.2 -0.4 -1.5 -1 -0.3 -0.5 -1.1 -1 -1.6 -1 -0.6 0 -0.3 0.7 0.5 1.6 0.9 0.8 2.4 1.4 3.3 1.3 1 -0.2 4.5 0.5 7.8 1.5 6.9 2.1 13.4 1.6 20.4 -1.5 2.4 -1 4.8 -1.6 5.4 -1.2 0.5 0.3 0.7 0.1 0.4 -0.4 -0.4 -0.6 0 -1.4 0.9 -1.7 2.2 -0.9 3.1 -0.7 1.6 0.3 -1 0.6 -0.9 1.1 0.4 2.2 1.6 1.2 1.7 1.2 1 -0.1 -0.4 -0.8 0.8 0.2 2.8 2.3 2.2 2.4 3.2 4.5 2.9 5.5 -0.4 1 -0.2 1.3 0.5 0.8 2.7 -1.6 0.9 1.5 -2 3.7 -5.3 4 -9.1 5.5 -12.1 5 -1.6 -0.3 -2.7 -0.1 -2.7 0.6 0 0.5 0.8 0.8 1.8 0.5 1.4 -0.5 1.4 -0.3 -0.2 0.7 -2.2 1.4 -25.2 2.6 -24.4 1.3z"/>
  <path d="M337.5 432.6 c-2.2 -0.7 -3.5 -1.5 -3 -1.7 0.6 -0.3 0.4 -0.4 -0.4 -0.2 -1.9 0.5 -10.5 -4.5 -13.8 -8 -1.5 -1.6 -2.2 -2.6 -1.4 -2.2 1 0.5 1.2 0.4 0.7 -0.4 -0.4 -0.6 -1.1 -0.9 -1.5 -0.6 -1.3 0.7 -4.4 -3.2 -3.5 -4.6 0.4 -0.7 0.3 -1 -0.4 -0.5 -1.4 0.9 -6.6 -9.8 -5.9 -12.4 0.3 -1.1 0.1 -2 -0.3 -2 -3.1 0 -1.6 -24.5 1.5 -26.3 0.8 -0.4 1.5 -1.3 1.5 -2 0 -0.7 -0.4 -0.6 -1 0.3 -1.5 2.4 -1.2 0.4 0.7 -3.4 0.9 -1.9 2.1 -3.2 2.6 -2.9 0.6 0.3 0.7 0.1 0.3 -0.5 -0.9 -1.5 2.3 -6.4 3.7 -5.5 0.5 0.3 0.7 0.1 0.4 -0.4 -0.8 -1.3 2.7 -4.6 3.8 -3.6 0.4 0.5 0.5 0.2 0.1 -0.5 -1.3 -2.3 9.1 -9 18.9 -12.2 7.3 -2.4 30.7 -0.7 29 2 -0.3 0.6 0.1 0.7 0.9 0.4 1.4 -0.5 7.6 2.1 7.6 3.2 0 0.3 -0.5 0.2 -1.2 -0.2 -0.7 -0.5 -0.8 -0.3 -0.4 0.5 0.5 0.7 1.4 1 2.1 0.7 0.7 -0.2 3 1.1 5.2 3.1 2.1 1.9 3 3 2.1 2.3 -1.5 -1 -1.8 -1 -1.8 0.4 0 1.5 0.4 1.8 3.3 2 1.8 0.1 5.5 5.8 4.9 7.5 -0.3 0.9 -0.1 1.2 0.6 0.8 1.4 -1 5.5 10 5 13.5 -0.3 1.5 -0.1 2.5 0.4 2.2 1 -0.6 1.1 8.4 0.2 14.9 -0.4 2.8 -1.1 4.4 -1.7 4 -0.6 -0.4 -0.7 -0.1 -0.2 0.6 1 1.7 -2.4 10.3 -3.7 9.5 -0.7 -0.4 -0.8 -0.2 -0.4 0.5 0.9 1.4 -1.2 4.3 -2.4 3.6 -0.5 -0.3 -1.2 0 -1.6 0.6 -0.4 0.8 -0.3 0.9 0.4 0.5 2.1 -1.3 1.3 1 -1.1 3.2 -1.3 1.2 -2.7 1.9 -3.2 1.5 -0.4 -0.5 -0.5 -0.3 -0.2 0.4 1.3 2.1 -12 11.2 -14.3 9.8 -0.6 -0.3 -1 -0.2 -1 0.3 0 1.3 -5.1 2.5 -6.1 1.5 -0.5 -0.5 -3 -0.6 -5.6 -0.3 l-4.8 0.4 4.5 0.7 c3.2 0.4 1.7 0.6 -5.5 0.7 -5.5 0 -11.8 -0.5 -14 -1.2z m13.3 -0.3 c-1 -0.2 -2.8 -0.2 -4 0 -1.3 0.2 -0.5 0.4 1.7 0.4 2.2 0.1 3.2 -0.1 2.3 -0.4z m13.8 -18.5 c2.5 -1.2 5.9 -3.7 7.4 -5.5 1.5 -1.7 3.1 -2.9 3.5 -2.5 0.4 0.4 0.5 0.3 0.4 -0.3 -0.5 -1.5 2.4 -8.6 3.1 -7.6 1.2 2 -0.2 -15.8 -1.7 -20.3 -1.8 -5.6 -7.8 -12.8 -12.3 -14.6 -1.6 -0.7 -2.7 -1.6 -2.5 -2 0.3 -0.5 0 -1.2 -0.6 -1.6 -0.8 -0.4 -0.9 -0.3 -0.5 0.4 0.5 0.8 -0.1 1.2 -1.4 1.2 -1.2 0 -1.9 -0.3 -1.7 -0.7 0.3 -0.5 -2 -0.7 -5.1 -0.6 -4.9 0.1 -5.2 0 -2.2 -0.6 l3.5 -0.8 -3 -0.2 c-1.9 -0.1 -3.7 0.6 -4.8 1.9 -0.9 1.1 -2.3 2 -3.1 2 -0.8 0 -3.6 1.7 -6.3 3.7 -2.6 2 -4.2 2.9 -3.4 2 0.9 -1.1 1 -1.7 0.2 -1.7 -0.6 0 -1.2 0.6 -1.2 1.3 -0.3 2.7 -0.5 3.3 -1.7 5.5 -0.7 1.2 -1.6 2.1 -2 1.8 -0.4 -0.2 -0.8 0.6 -0.8 1.7 -0.1 1.2 -0.6 4.7 -1.1 7.7 -0.5 3 -0.5 8 0 11 0.5 3 0.9 6.5 1 7.7 0.1 1.2 0.6 2.5 1.1 3 0.5 0.5 0.6 0 0.2 -1.2 -0.5 -1.6 -0.2 -1.5 1.4 0.5 1.8 2.3 2.4 3.6 2.2 5.1 -0.1 0.4 0.6 0.6 1.6 0.5 0.9 0 1.7 0.5 1.7 1.3 0 2.1 11.9 5.1 18.2 4.6 2.9 -0.2 7.4 -1.4 9.9 -2.7z"/>
  <path d="M169.5 432.2 c-2.2 -0.2 -4.3 -0.9 -4.7 -1.5 -0.6 -0.9 -0.8 -0.9 -0.8 0.1 0 0.8 -1.8 1.2 -5.6 1.2 -3.4 0 -5.3 -0.4 -4.9 -1 0.3 -0.5 -0.1 -1 -1 -1 -0.9 0 -1.3 0.5 -1 1 0.3 0.6 0.4 1 0.1 1 -0.7 0 -7.8 -11.8 -7.6 -12.6 0.1 -0.4 -0.5 -1.1 -1.4 -1.6 -0.9 -0.5 -1.6 -1.4 -1.6 -2.1 0 -0.8 0.4 -0.6 1.1 0.3 0.9 1.3 1 1.3 0.6 0 -0.2 -0.8 -0.9 -1.4 -1.5 -1.3 -1.5 0.3 -6.5 -8.5 -5.6 -9.9 0.4 -0.6 0.3 -0.8 -0.4 -0.4 -0.6 0.3 -1.5 -0.1 -1.9 -0.9 -0.5 -0.8 -1.8 -1.7 -2.9 -1.9 -1.7 -0.4 -2.1 0.1 -2.1 2.9 0 4.2 -3.8 10.5 -6.1 10 -1.3 -0.2 -1.8 0.5 -2 3.2 -0.3 4.1 -1.9 7.6 -3.2 6.8 -0.6 -0.3 -0.7 0 -0.4 0.8 0.3 0.8 0 1.8 -0.7 2.3 -0.8 0.5 -1 0.3 -0.4 -0.6 0.5 -0.9 0.4 -1.1 -0.4 -0.6 -0.6 0.4 -0.9 1.1 -0.6 1.6 1.4 2.2 -0.8 3.7 -5.3 3.8 -3.7 0 -4.2 -0.2 -2.2 -0.8 l2.5 -0.8 -2.7 -0.1 c-1.6 -0.1 -2.8 0.3 -2.8 0.7 0 0.4 -1.6 0.9 -3.6 1 -2.3 0.2 -3.3 -0.1 -2.9 -0.8 0.3 -0.5 -0.1 -1 -1 -1 -0.9 0 -1.3 0.5 -1 1 0.4 0.6 -0.5 1 -2.1 1 l-2.6 0 1.8 -2.7 c8.7 -13.6 16.5 -24.7 16.8 -24.3 0.2 0.3 0.8 0.1 1.3 -0.4 0.5 -0.5 0.2 -0.6 -0.6 -0.1 -0.9 0.5 -1.2 0.3 -0.9 -0.6 0.3 -0.8 1.1 -1.3 1.7 -1.1 0.7 0.1 1 -0.2 0.6 -0.8 -0.8 -1.3 1.9 -5.2 3 -4.2 0.5 0.4 0.5 0.1 0.1 -0.5 -0.4 -0.7 0.5 -3.2 2.1 -5.5 2.9 -4.4 3.5 -7 1.9 -8.5 -0.5 -0.4 -0.6 -0.3 -0.2 0.5 0.4 0.6 0.5 1.2 0.3 1.2 -1.2 0 -7.7 -11.2 -7.1 -12.2 0.4 -0.7 0.3 -0.8 -0.4 -0.4 -1.2 0.7 -3.6 -3 -2.7 -4.4 0.3 -0.5 0 -1.2 -0.6 -1.6 -0.8 -0.4 -0.9 -0.3 -0.5 0.4 0.4 0.7 0.5 1.2 0.3 1.2 -0.2 0 -1.7 -1.9 -3.2 -4.1 -1.5 -2.3 -2.2 -3.8 -1.6 -3.5 0.7 0.4 0.9 0.1 0.5 -0.8 -0.3 -0.9 -1 -1.4 -1.4 -1.1 -0.9 0.6 -4.3 -4.3 -4.3 -6.2 0 -0.7 -0.7 -1.5 -1.4 -1.7 -0.8 -0.3 -1.1 -1 -0.8 -1.6 0.3 -0.5 0.2 -1 -0.3 -1 -0.5 0 -1.7 -1.1 -2.5 -2.4 -1.7 -2.5 -0.7 -3 2.2 -1.2 1 0.7 1.2 0.5 0.6 -0.3 -0.5 -1 1.7 -1.2 9.6 -0.9 9.3 0.3 10.4 0.5 10.2 2.1 0 1 0.2 1.6 0.5 1.2 1.1 -1 5 6.6 4.5 8.6 -0.4 1.5 0 2.2 1.6 2.6 1.8 0.5 8.1 9.1 8.1 11.2 0 0.4 1 1.6 2.3 2.7 1.2 1 1.9 1.5 1.5 1 -0.9 -1.1 1.9 -6.6 3.3 -6.6 0.6 0 0.8 -0.3 0.5 -0.8 -0.5 -0.9 3.9 -8.4 4.6 -7.7 0.2 0.3 0.5 -0.1 0.5 -0.8 0 -2 3.4 -6.7 4.9 -6.7 0.7 0 1.6 -0.4 1.9 -1 0.4 -0.6 -0.1 -0.7 -1.1 -0.3 -1.5 0.6 -1.4 0.1 0.5 -2.5 l2.2 -3.2 9.3 0 c7.1 0 9.7 0.4 10.6 1.5 1.2 1.5 1.1 1.6 -1.2 1.9 -0.6 0 -1.3 0.7 -1.6 1.5 -0.3 0.9 0 1.1 0.8 0.6 0.7 -0.5 0.5 0.5 -0.5 2.3 -1 1.7 -2.3 2.8 -2.9 2.5 -0.6 -0.3 -0.8 -0.3 -0.4 0.2 0.8 0.9 -1.1 5 -1.9 4.1 -0.8 -0.8 -3.3 1.3 -3.3 2.7 0 0.6 0.7 0.2 1.5 -0.9 2.5 -3.3 1.6 -0.7 -1.1 3.3 -1.4 2.1 -3 3.7 -3.5 3.6 -0.4 -0.2 -0.5 0.5 -0.2 1.4 0.5 1.2 0.3 1.4 -0.7 0.8 -0.8 -0.5 -1.1 -0.4 -0.7 0.1 0.3 0.6 -1.9 4.8 -5 9.5 -3 4.6 -5.2 7.3 -4.8 5.9 0.4 -1.4 0.4 -2.2 0 -1.7 -1 0.9 -1.3 7.7 -0.4 7.1 0.8 -0.5 4.2 4.6 4.2 6.3 0 0.7 0.4 1 0.8 0.8 0.8 -0.5 2.3 2.5 2 3.9 -0.3 1.4 2.1 5.6 3.1 5.6 0.5 0 0.6 -0.6 0.3 -1.2 -0.4 -0.7 0.3 -0.2 1.4 1.2 1.1 1.4 1.9 3.1 1.6 3.7 -0.2 0.7 0.1 1.2 0.8 1 0.7 -0.1 1.1 0.6 0.9 1.7 -0.2 1 0.1 1.5 0.7 1.2 0.5 -0.4 1.5 0.3 2.1 1.5 0.8 1.5 0.8 1.9 0.1 1.5 -0.7 -0.4 -0.9 -0.1 -0.5 0.8 0.3 0.9 1.1 1.4 1.7 1.3 0.7 -0.1 1.1 0.6 0.9 1.7 -0.2 1 0.1 1.5 0.7 1.2 1.5 -1 2.5 1.4 2.2 5.6 -0.2 3.3 0.1 3.8 2 3.8 2 0 2.1 -0.1 0.5 -2.5 -0.9 -1.4 -1.4 -2.5 -1.2 -2.5 0.6 0 4.9 6.1 4.5 6.3 -0.2 0.1 -2.2 0.1 -4.4 -0.1z m-53.7 -54.2 c-2.2 -3 -3.5 -4.1 -2.2 -1.7 0.9 1.6 3.6 4.7 4.1 4.7 0.2 0 -0.6 -1.3 -1.9 -3z"/>
  <path d="M190.6 432.2 c-0.3 -0.6 -1.2 -0.9 -1.9 -0.6 -0.9 0.3 -1.1 -9.4 -0.9 -44.1 l0.2 -44.5 9.5 0 9.5 0 0 44.5 0 44.5 -2.2 0 c-1.9 0 -2 -0.2 -0.8 -1 1.2 -0.8 0.9 -1 -1.2 -1 -1.6 0 -2.8 0.5 -2.8 1.1 0 0.5 0.5 0.7 1.2 0.3 0.7 -0.5 0.8 -0.3 0.3 0.6 -0.6 1 -1.1 0.9 -2.2 -0.5 -0.7 -1.1 -1.3 -1.4 -1.3 -0.7 0 1.4 -5 1.2 -5.1 -0.3 0 -0.5 -0.4 -0.1 -0.8 0.9 -0.5 1.3 -1 1.6 -1.5 0.8z"/>
  <path d="M412.1 388.2 l-0.1 -45.3 28.5 0.1 c16.1 0.1 28.7 0.6 29.1 1.1 0.3 0.5 -0.4 0.9 -1.5 0.9 -2.3 0 -2.8 1.5 -0.9 2.6 0.7 0.4 0.8 0.3 0.4 -0.4 -0.4 -0.7 -0.2 -1.2 0.4 -1.2 1.9 0 2.3 3 0.6 4.9 -1.1 1.2 -1.3 2.1 -0.7 2.5 0.5 0.3 1.2 -0.2 1.4 -1.1 0.3 -1 0.5 0.2 0.6 2.6 0.1 3.4 -0.2 4.1 -1.2 3.3 -0.8 -0.7 -1.8 -0.7 -2.7 -0.2 -0.8 0.5 -1.7 0.7 -2.1 0.4 -0.4 -0.2 -1.1 0.1 -1.5 0.7 -0.4 0.8 -0.3 0.9 0.4 0.5 0.7 -0.4 1.2 -0.2 1.2 0.3 0 0.9 -14.1 1.8 -17.5 1.1 -0.5 -0.1 -1.7 -0.1 -2.5 -0.1 -0.8 0.1 -3.9 0.3 -6.7 0.4 -2.9 0.2 -5.5 0.5 -5.7 0.8 -0.3 0.2 -0.6 3.8 -0.7 7.9 -0.1 4.1 -0.6 8.1 -1.2 8.8 -0.7 0.9 0 1.2 3.2 1.2 2.6 0 4.1 0.5 4.1 1.3 0 0.8 0.4 0.7 1 -0.3 0.7 -1 1.3 -1.1 1.8 -0.5 1 1.6 5.4 1.7 4.5 0.2 -0.5 -0.9 -0.3 -0.9 0.8 -0.1 1.5 1.1 16.7 1.2 18.6 0.1 0.8 -0.5 1.2 1.5 1.2 7.3 l0 8 -16.8 0 c-9.2 0 -17 0.2 -17.2 0.4 -0.2 0.2 -0.3 4.7 -0.1 10 l0.3 9.6 20.5 0 20.4 0 0 8.2 c0 6.4 -0.3 7.9 -1.2 7 -1.5 -1.5 -15.2 -1.7 -14.3 -0.2 0.4 0.6 -1 1 -3.5 1 -2.5 0 -3.9 -0.4 -3.5 -1 0.3 -0.5 -0.1 -1 -1 -1 -0.9 0 -1.3 0.5 -1 1 0.4 0.6 -0.9 1 -3.2 0.9 -3.4 -0.1 -3.5 -0.2 -1.3 -0.9 l2.5 -0.8 -2.7 -0.1 c-1.6 -0.1 -2.8 0.4 -2.8 0.9 0 0.6 -1.2 1 -2.7 1 -2 0 -2.4 -0.3 -1.4 -0.9 0.9 -0.6 0.5 -0.8 -1.4 -0.8 -1.9 0 -2.3 0.2 -1.4 0.8 0.9 0.5 -2.1 0.9 -7.4 0.9 -5.6 0 -8.6 -0.4 -8.2 -1 0.3 -0.5 0.1 -1 -0.4 -1 -0.6 0 -1.1 0.5 -1.1 1 0 0.6 -0.4 1 -1 1 -0.5 0 -0.9 -0.3 -0.9 -0.7 0.1 -0.5 0 -1.7 -0.1 -2.8 -0.2 -1.3 -0.5 -0.7 -1 1.5 -0.4 1.9 -0.8 -16.9 -0.9 -41.8z m35.7 6.1 c-1 -0.2 -2.8 -0.2 -4 0 -1.3 0.2 -0.5 0.4 1.7 0.4 2.2 0.1 3.2 -0.1 2.3 -0.4z"/>
  <path d="M459.3 431.3 c0.9 -0.2 2.5 -0.2 3.5 0 0.9 0.3 0.1 0.5 -1.8 0.5 -1.9 0 -2.7 -0.2 -1.7 -0.5z"/>
  <path d="M370 304.3 c-3.4 -0.6 -3.4 -0.6 -1 -1.4 2 -0.7 1.7 -0.8 -1.3 -0.4 -4.3 0.4 -13.4 -2.5 -16.5 -5.3 -1 -0.9 -1.1 -1.2 -0.2 -0.7 1.3 0.9 1.3 0.8 0.1 -0.7 -0.7 -1 -1.7 -1.5 -2.2 -1.3 -0.4 0.3 -2.3 -0.8 -4.1 -2.6 -1.8 -1.7 -2.7 -2.8 -2 -2.4 1.8 0.9 1.5 -1 -0.5 -2.6 -1.4 -1.2 -1.6 -1.2 -0.8 0 0.5 1 0.4 1.2 -0.3 0.7 -2.5 -1.5 -6.4 -9.5 -5.7 -11.8 0.4 -1.6 0.4 -1.9 -0.3 -0.9 -0.7 1 -1.3 0 -2.1 -3.8 -1.6 -7.3 -1.4 -19.6 0.4 -26.5 1.9 -7.4 5.5 -15.7 6.5 -15.1 0.4 0.3 0.7 -0.3 0.6 -1.3 0 -0.9 0.5 -1.6 1.2 -1.4 0.8 0.1 1.1 -0.2 0.6 -0.9 -0.4 -0.8 0.4 -2.2 2.2 -3.7 1.6 -1.3 2.2 -2.1 1.4 -1.6 -1.3 0.7 -1.3 0.5 -0.1 -0.9 0.7 -0.9 1.7 -1.5 2.1 -1.2 0.4 0.3 1.4 -0.3 2.1 -1.3 1.3 -1.5 1.2 -1.6 -0.3 -0.3 -3.1 2.4 -1.9 -0.4 1.6 -3.8 1.9 -1.8 3.9 -3.1 4.4 -2.7 0.5 0.3 1.6 -0.2 2.3 -1.2 1.2 -1.5 1.2 -1.6 -0.1 -0.7 -0.9 0.6 -0.5 0 0.9 -1.2 1.4 -1.2 2.9 -1.9 3.4 -1.6 1.2 0.8 5.7 -1.8 5.7 -3.3 0 -0.6 1.9 -2 4.3 -2.9 8.1 -3.3 38.7 -2 38.7 1.6 0 0.5 0.3 0.8 0.8 0.7 1.9 -0.5 5.1 1.4 4.5 2.8 -0.3 1 0.2 1.4 1.9 1.4 2.5 0 7.7 4.8 11.5 10.5 2.4 3.7 5.6 11.6 4.9 12.3 -0.3 0.3 -1 -0.6 -1.5 -1.9 -0.9 -2.1 -1 -1.8 -0.8 1.8 0.1 2.4 0.7 4.1 1.2 3.9 0.6 -0.2 0.9 -0.9 0.7 -1.5 -0.1 -0.7 0.2 -1 0.8 -0.6 0.5 0.3 1 1.8 1 3.3 0 2.2 -0.2 2.4 -1.1 1.2 -0.8 -1.2 -0.9 -1.1 -0.6 0.5 0.2 1.1 0.9 1.9 1.7 1.7 1 -0.2 1.2 1.3 0.7 8.1 -0.8 10.4 -1.7 14.7 -2.9 14.7 -0.5 0 -0.6 -0.5 -0.2 -1.2 0.4 -0.7 0.3 -0.8 -0.4 -0.4 -0.7 0.4 -1.2 1.4 -1.2 2.2 0 0.8 0.5 1.2 1 0.9 1.3 -0.8 1.3 -0.2 -0.6 4.4 -0.8 2.2 -2.2 4.2 -3 4.5 -0.9 0.3 -1.3 1 -0.9 1.6 0.3 0.5 -0.1 2.3 -1 4 -1.6 3.1 -3.2 4.2 -2.1 1.4 0.3 -0.9 0.2 -1.2 -0.5 -0.9 -0.6 0.4 -0.8 1.4 -0.5 2.2 0.7 1.8 -9.2 12.5 -10.7 11.6 -0.5 -0.3 -0.7 -0.1 -0.4 0.4 1 1.6 -6.6 6.5 -8.9 5.7 -1.5 -0.5 -1.6 -0.4 -0.4 0.4 1.1 0.9 0.5 1.5 -3.3 3.1 -2.5 1.1 -6.4 2.5 -8.4 3 -4.8 1.3 -17.7 2.1 -22.3 1.4z m18.8 -2 c-1 -0.2 -2.8 -0.2 -4 0 -1.3 0.2 -0.5 0.4 1.7 0.4 2.2 0.1 3.2 -0.1 2.3 -0.4z m-4.8 -25.6 c3.2 -1.1 6.2 -1.5 5.4 -0.7 -0.5 0.4 -2 1 -3.4 1.3 -2.2 0.4 -2.2 0.4 0.6 0.6 1.6 0 3.9 -0.6 5 -1.4 1.5 -1.1 1.6 -1.5 0.4 -1.5 -0.8 -0.1 0.1 -0.9 2 -1.9 1.9 -1.1 3.9 -1.7 4.4 -1.4 0.5 0.4 0.6 0.2 0.3 -0.4 -0.3 -0.5 0.8 -2.2 2.5 -3.9 6.9 -6.4 10.3 -19.7 7.4 -28.8 -0.8 -2.7 -1.3 -5.3 -1 -5.8 0.3 -0.5 0.1 -0.7 -0.4 -0.6 -0.6 0.2 -1.1 -0.1 -1.1 -0.7 -0.3 -1.5 -10.2 -7.5 -12.6 -7.6 -2 0 -2 0 0 -0.9 1.5 -0.6 0.8 -0.8 -2.5 -0.8 -2.5 0 -4.8 0.5 -5.1 1 -0.3 0.5 -2.7 1 -5.2 1.1 -2.5 0.1 -4.2 0.4 -3.8 0.7 0.5 0.3 -1.3 2 -3.9 3.9 -2.6 1.9 -5.7 4.9 -6.9 6.7 -1.4 2 -2.8 3.1 -3.7 2.7 -0.8 -0.3 -1.4 0 -1.4 0.7 0 0.6 0.5 0.8 1 0.5 1.2 -0.7 1.2 -0.3 0.4 1.9 -0.3 0.9 -1.1 1.3 -1.7 0.9 -0.5 -0.3 -0.7 -0.2 -0.4 0.4 0.4 0.6 0.2 3.6 -0.3 6.8 -0.6 3.9 -0.6 7.3 0.2 10.4 0.6 2.5 1.1 5.7 1.2 7 0 1.3 0.8 2.7 1.6 2.9 1.3 0.5 1.3 0.3 0 -1.4 -0.8 -1 0.2 -0.3 2.2 1.6 2 1.9 3.5 3.7 3.2 4.1 -0.2 0.4 0.1 1.1 0.7 1.5 0.8 0.5 0.9 0.3 0.4 -0.6 -0.6 -1 -0.4 -1.2 0.9 -0.7 1 0.4 2.3 0.7 2.9 0.8 0.7 0 0.3 0.5 -0.8 1 -1.5 0.7 -1.2 0.8 1.3 0.3 1.7 -0.3 3.2 -0.2 3.2 0.3 0 0.9 4.5 0.9 7 0z m51 -23 c0 -1.8 -0.2 -1.9 -1 -0.7 -1.3 2 -1.3 4.3 0 3.5 0.6 -0.3 1 -1.6 1 -2.8z m0.7 -11.4 c0.1 -3.3 0 -3.5 -0.7 -1.3 -1.1 3.5 -1.1 5 -0.2 5 0.5 0 0.9 -1.7 0.9 -3.7z m-8.7 -28.2 c-1.3 -2.5 -3 -3.6 -3 -2 0 0.6 0.8 1.8 1.8 2.5 2.3 1.8 2.4 1.7 1.2 -0.5z"/>
  <path d="M736.5 304 c-3.9 -0.6 -3.9 -0.6 -1 -1.2 2 -0.3 1.5 -0.5 -1.4 -0.3 -5 0.3 -11.5 -1.6 -15.1 -4.6 l-2.5 -2 2.5 1.1 2.5 1.1 -2.5 -2 c-1.4 -1.1 -2.7 -1.5 -3.1 -1 -0.3 0.5 -2.9 -1.5 -5.8 -4.6 -5.6 -5.9 -10.6 -15.4 -9.8 -18.6 0.3 -1 0.2 -1.7 -0.3 -1.4 -1.4 0.9 -2.2 -12.8 -1.1 -19.5 0.6 -3.6 1.1 -6.8 1.1 -7.2 0 -0.5 0.7 -0.8 1.5 -0.8 0.8 0 1.5 -0.5 1.5 -1.1 0 -0.5 -0.4 -0.7 -1 -0.4 -1.3 0.8 -1.3 -1.6 0.1 -3.5 0.9 -1.3 1 -1.2 0.5 0.3 -0.4 1.1 -0.2 1.6 0.5 1.1 0.6 -0.3 0.8 -1.6 0.5 -2.7 -0.9 -3.5 7.5 -17.4 9.7 -16 0.6 0.4 0.7 0.1 0.2 -0.6 -0.9 -1.5 4.3 -7.3 5.8 -6.4 0.6 0.3 0.7 0.1 0.3 -0.5 -0.7 -1.2 4.2 -5.4 5.4 -4.7 0.5 0.3 1.2 0 1.6 -0.6 0.5 -0.8 0.2 -1 -0.7 -0.5 -0.8 0.4 -0.5 0 0.6 -0.9 3.5 -2.9 13.7 -7.7 15.2 -7.1 0.8 0.3 1.1 0.1 0.8 -0.4 -0.7 -1.1 -0.3 -1.2 16 -1.2 12.2 -0.1 20.1 1.4 18.9 3.4 -0.4 0.6 -0.2 0.8 0.4 0.5 1.4 -0.9 4.3 0.3 3.6 1.4 -0.3 0.5 0.2 0.6 1 0.3 1.1 -0.4 1.6 0 1.6 1.1 0 1 0.5 1.5 1.4 1.2 0.8 -0.3 3 1.2 5.2 3.5 2.2 2.3 3.3 3.8 2.7 3.4 -0.7 -0.4 -1.3 -0.3 -1.3 0.2 0 0.5 0.9 1.2 2 1.5 3 0.8 6.9 9.9 6.3 14.6 -0.3 2.1 -0.1 4.1 0.4 4.4 0.6 0.4 0.9 -0.5 0.6 -2.1 -0.3 -2.4 -0.2 -2.4 0.6 -0.6 2.6 5.8 1.9 27.3 -0.9 28.2 -0.6 0.2 -0.8 0.7 -0.5 1.2 0.8 1.3 -3.5 12.1 -4.6 11.5 -0.5 -0.4 -0.6 0 -0.4 0.7 0.3 0.8 -0.2 2.2 -1.1 3.3 -1.4 1.8 -1.5 1.8 -1 0.2 0.4 -1.1 0.2 -1.6 -0.5 -1.2 -0.5 0.4 -0.9 1.5 -0.7 2.5 0.4 2.2 -3.9 8.3 -5.3 7.5 -0.5 -0.4 -0.8 -0.1 -0.7 0.7 0.2 0.7 -0.3 1.2 -1 1 -0.6 -0.1 -1.1 0.3 -1 1 0.2 0.7 -0.4 1.3 -1.2 1.3 -0.8 0.1 -1.4 0.6 -1.3 1.2 0.5 2.3 -13.7 11 -15.9 9.7 -0.6 -0.4 -0.8 -0.3 -0.5 0.3 1 1.7 -4.4 3.1 -9.9 2.7 -3.7 -0.2 -4.2 -0.1 -1.9 0.4 2.8 0.8 2.8 0.8 -1.9 1.5 -5.5 0.8 -9.3 0.7 -15.1 -0.3z m13.2 -0.7 c-1.1 -1 -5.7 -1.3 -5.7 -0.2 0 0.5 1.4 0.9 3.2 0.9 1.7 0 2.8 -0.3 2.5 -0.7z m-8.2 -26.3 c-2.6 -1.1 -3.5 -1.2 -3.5 -0.2 0 0.4 1.2 0.8 2.8 0.9 2.3 0.1 2.4 0.1 0.7 -0.7z m11.1 0.1 c-1.5 -0.6 -1.1 -0.9 2.1 -1.9 2.2 -0.7 5.6 -2.2 7.4 -3.5 1.9 -1.3 4.1 -2.1 4.9 -1.9 0.8 0.3 1.2 0.1 0.8 -0.3 -0.4 -0.4 0.4 -2.2 1.7 -3.9 4.7 -6.2 6.7 -12.3 6.6 -20 -0.2 -11.6 -0.2 -12 -1 -10.7 -0.5 0.8 -1.1 0.3 -1.9 -1.3 -0.7 -1.6 -0.7 -2.6 -0.1 -3 0.5 -0.2 0.4 -0.3 -0.3 -0.2 -0.7 0.2 -2.8 -1 -4.6 -2.5 -1.8 -1.6 -4 -2.9 -4.8 -2.9 -0.8 0 -1.3 -0.4 -1 -0.8 0.3 -0.5 -0.8 -0.7 -2.3 -0.4 -1.6 0.2 -3.9 -0.1 -5.1 -0.8 -1.5 -0.8 -2 -0.8 -1.6 -0.1 0.5 0.7 -0.3 1.1 -2.1 1 -2.5 0 -2.6 -0.1 -0.8 -1 1.8 -0.8 1.7 -0.8 -0.5 -0.6 -1.4 0.1 -2.4 0.8 -2.2 1.5 0.2 1 -0.4 1.1 -2 0.7 -1.3 -0.4 -2 -0.4 -1.6 0 0.4 0.4 -1.2 2.1 -3.6 3.6 -2.4 1.6 -5.6 4.7 -7.1 6.9 -1.5 2.1 -3.2 3.8 -3.9 3.7 -0.6 -0.1 -1.1 0.7 -1.1 1.8 -0.1 1.1 -0.7 4.6 -1.4 7.8 -1.4 6.3 -0.8 12.4 1.6 17.1 1 1.9 1.1 2.6 0.3 2.1 -0.8 -0.5 -1.1 -0.3 -0.9 0.4 0.3 0.7 0.9 1.3 1.4 1.3 0.6 0 2.2 1 3.6 2.2 1.5 1.3 4.2 2.8 6 3.5 1.9 0.7 4 1.6 4.7 1.9 0.8 0.4 3.5 0.8 6 0.9 2.9 0.1 4 -0.1 2.8 -0.6z"/>
  <path d="M589.3 249.5 c-6.3 -2.7 -7 -7.7 -4.2 -31.8 1.5 -12.7 2.7 -19.5 3.6 -20 0.7 -0.4 1.3 -1.3 1.3 -2 0 -0.7 -0.4 -0.6 -1 0.3 -0.8 1.2 -1 1 -1 -0.8 0 -5 2.4 -21.2 3.1 -21.2 0.5 0 0.6 -0.6 0.3 -1.4 -0.3 -0.8 0.2 -6.7 1 -13.2 0.9 -6.6 2.4 -18.7 3.3 -27.1 1 -9.5 2 -15 2.6 -14.6 0.6 0.4 0.7 0.1 0.2 -0.6 -1 -1.7 2.5 -31.1 3.7 -31.1 0.5 0 0.6 -0.5 0.3 -1.1 -0.9 -1.3 2.6 -32.9 3.5 -32.9 0.4 0 0.5 -1 0.3 -2.3 -0.2 -1.2 0.5 -7.9 1.5 -14.9 2.2 -14 4.1 -18.1 9.6 -20.3 2.3 -0.9 16.5 -1.1 58.2 -1 l55 0.2 5.9 2.7 c6.9 3.1 9.7 5.4 8.8 7 -0.3 0.6 -0.3 0.8 0.2 0.4 1.1 -1.1 3.6 1.2 2.8 2.5 -0.3 0.6 -0.1 0.7 0.5 0.3 0.6 -0.4 2.3 1.2 4 3.6 4.2 6.3 4.7 7.2 3.4 6.4 -0.7 -0.4 -1.2 -0.2 -1.2 0.3 0 0.6 0.7 1.1 1.5 1.1 1.7 0 3.5 3 3.5 5.9 0 1.2 0.7 2.1 1.5 2.1 1.7 0 4.8 5.4 3.7 6.5 -0.4 0.5 -0.2 0.6 0.3 0.2 0.6 -0.3 2.3 1.5 3.8 4.1 2.2 3.8 2.3 4.2 0.6 2.2 -1.6 -1.8 -2 -2 -1.6 -0.7 0.4 1 0.7 2.1 0.7 2.3 0 0.3 1.2 0.9 2.6 1.4 1.8 0.7 2.4 1.5 2 2.6 -0.3 0.8 -0.2 1.3 0.3 1 0.8 -0.6 1.8 0.9 1.9 2.8 0 0.5 0.4 1.2 1 1.5 0.5 0.3 2.4 3.1 4.3 6.1 5.4 8.4 5.3 8.4 4.1 7.6 -1.7 -1 -1.4 0.6 0.5 2.9 1.3 1.6 1.5 1.7 1 0.3 -1 -2.8 -0.1 -2.1 2.2 1.6 2.5 3.9 2.8 5.8 0.5 3 -1.4 -1.8 -1.5 -1.8 -0.4 0.3 0.6 1.3 1.5 2.2 2 2 0.6 -0.1 2 1.4 3.2 3.3 l2.2 3.5 -2.4 -2 -2.3 -2 1.8 2.7 c0.9 1.5 2.1 2.6 2.5 2.3 1.1 -0.7 5.2 6.4 4.4 7.6 -0.3 0.5 -0.1 0.8 0.4 0.7 0.5 -0.2 2.5 1.6 4.4 3.9 2 2.3 3.8 4 4 3.8 0.2 -0.2 5.5 1.2 11.7 3.1 6.2 1.9 11.1 3.7 10.8 4 -0.2 0.2 -1.6 0 -3.1 -0.6 -1.5 -0.5 -3.2 -1 -3.7 -1 -1.4 0 -1.1 1.7 0.4 1.7 9.1 0.6 23 4.1 22 5.6 -0.3 0.6 -0.1 0.7 0.6 0.3 1.5 -1 8.3 1.3 7.6 2.5 -0.4 0.5 0.9 0.9 2.8 0.9 3.1 0 20.3 5.3 21.6 6.6 0.5 0.6 -2.4 -0.1 -5.5 -1.3 -0.6 -0.2 -1.1 0.2 -1.1 0.9 0 0.9 2 1.4 6.1 1.6 6.4 0.3 11.6 1.8 11.6 3.4 0 0.5 0.4 0.7 0.8 0.4 1.1 -0.7 3.7 1.1 3.7 2.6 0 0.7 1 1.4 2.3 1.6 2.4 0.4 4.6 3.4 3.4 4.7 -0.4 0.5 -0.2 0.5 0.4 0.2 0.7 -0.4 2 1.4 3.4 4.6 2.1 4.7 2.3 7.2 2.6 23.9 0.4 15.6 0.2 18.9 -1.1 20.2 -2 1.9 -1.9 3.7 0.1 2.9 1.2 -0.4 1.5 0.1 1.2 2.3 -0.2 1.6 -1 3.4 -1.8 4.1 -1.3 1 -1.3 1.4 -0.1 2.5 0.8 0.8 1.1 0.8 0.7 0.1 -0.3 -0.6 -0.2 -1.4 0.4 -1.8 0.6 -0.4 1 0.6 1 2.3 0 1.7 1.1 5.4 2.5 8.3 1.8 4 2.3 6.4 1.9 9.8 -0.3 3.6 -0.2 4.2 0.6 2.6 0.8 -1.6 0.9 -1 0.5 2.3 -0.7 5.5 -2.7 8.6 -7 10.6 -2.9 1.4 -8.9 1.6 -45.2 1.5 -24.2 0 -41 -0.4 -39.8 -0.9 1.5 -0.6 1.6 -0.9 0.4 -0.9 -1.3 -0.1 -1.7 -1.9 -2.3 -10.2 -0.4 -5.5 -1.8 -13.7 -3.1 -18.2 -1.3 -4.5 -2.1 -8.6 -1.8 -9.1 0.4 -0.5 0.1 -0.6 -0.5 -0.2 -0.6 0.3 -1.4 -0.4 -1.8 -1.6 -0.4 -1.3 -0.5 -2.3 -0.4 -2.3 0.2 0 -0.8 -1.3 -2.3 -2.9 -1.5 -1.6 -2.4 -3.3 -2.1 -3.8 0.3 -0.4 0.2 -0.7 -0.3 -0.6 -0.4 0.1 -3 -2 -5.8 -4.7 -2.7 -2.6 -4.1 -4.2 -3 -3.5 1.7 1.2 1.8 1.2 0.8 0 -0.7 -0.8 -1.9 -1.5 -2.5 -1.6 -2.9 -0.4 -13.9 -7.2 -12.6 -7.7 0.7 -0.4 0.2 -0.5 -1.2 -0.4 -3.4 0.2 -11.1 -1.3 -10.6 -2.1 0.7 -1.1 -25.5 -0.5 -32.5 0.8 -28.7 5 -54.5 29.8 -61.8 59.5 -0.7 2.8 -1.7 6.2 -2.4 7.8 l-1.2 2.7 -41 0 c-32.6 -0.1 -41.7 -0.4 -44.2 -1.5z m75.5 -0.2 c-1 -0.2 -2.6 -0.2 -3.5 0 -1 0.3 -0.2 0.5 1.7 0.5 1.9 0 2.7 -0.2 1.8 -0.5z m240.6 -86.2 c-0.4 -1.7 -0.9 -3 -1.1 -2.7 -0.3 0.2 -0.2 1.9 0.2 3.6 0.9 4.1 1.7 3.3 0.9 -0.9z m-142.7 -45.2 c4 -0.1 7.1 -0.5 7.1 -0.8 -0.1 -0.3 0.2 -1.6 0.6 -2.9 0.5 -1.6 0.1 -3.6 -1.3 -6.4 -1.1 -2.3 -1.7 -4.6 -1.4 -5.1 0.3 -0.6 0.2 -0.7 -0.4 -0.4 -1.2 0.8 -5.5 -6.7 -4.5 -7.8 0.4 -0.5 0.2 -0.5 -0.4 -0.2 -0.6 0.3 -2.1 -1.2 -3.3 -3.6 -1.2 -2.3 -1.6 -3.4 -0.7 -2.3 1.4 1.8 1.5 1.8 1.3 -0.2 0 -1.2 -0.3 -1.9 -0.5 -1.7 -1.6 1.6 -9 -8 -7.7 -9.9 0.3 -0.3 0.2 -0.4 -0.1 -0.1 -1.1 0.7 -12.5 -18.5 -11.8 -19.7 0.5 -0.7 0.2 -0.8 -0.6 -0.3 -1 0.6 -1.2 0.4 -0.7 -0.9 0.4 -1 0.3 -1.5 -0.3 -1.1 -0.5 0.3 -1.4 -0.4 -2 -1.5 -0.6 -1.1 -0.8 -2 -0.5 -2 0.4 0 -0.1 -0.7 -0.9 -1.6 -0.9 -0.8 -1.3 -2 -1 -2.6 0.4 -0.6 0.2 -0.8 -0.3 -0.5 -0.6 0.4 -1.9 -0.3 -2.9 -1.4 -4.3 -4.7 -5.5 -4.9 -39.1 -5.1 l-31.8 -0.2 21.5 -0.6 21.5 -0.6 -23.5 -0.1 c-13.8 -0.1 -22.7 0.2 -21.5 0.7 1.7 0.8 1.6 0.9 -1 1.1 -6.5 0.5 -8.2 1.4 -8.2 4.7 0 4.7 -3.7 37.6 -4.1 36.4 -0.2 -0.7 -0.8 -1.2 -1.3 -1.2 -0.6 0 -0.5 0.8 0.1 2 1.2 2.2 0.4 15 -1.2 18.5 -0.6 1.6 -0.8 1.3 -0.5 -1.2 0.2 -1.8 0 -3 -0.5 -2.7 -0.4 0.3 -0.7 3.8 -0.6 7.7 0.1 6.6 0.2 6.8 0.8 2.7 l0.7 -4.5 0.1 4.2 c0.1 2.3 0.9 5.8 1.9 7.7 l1.6 3.5 31.1 0.1 c17 0 31.1 0.2 31.2 0.3 0.2 0.2 42.1 -0.1 55.1 -0.4z m-43.9 -79.6 c-2.1 -0.2 -5.7 -0.2 -8 0 -2.4 0.2 -0.7 0.4 3.7 0.4 4.4 0 6.3 -0.2 4.3 -0.4z"/>
  <path d="M389.3 196.3 c1.5 -0.2 3.9 -0.2 5.5 0 1.5 0.2 0.2 0.4 -2.8 0.4 -3 0 -4.3 -0.2 -2.7 -0.4z"/>
  <path d="M755.3 196.3 c1.5 -0.2 3.7 -0.2 5 0 1.2 0.2 0 0.4 -2.8 0.4 -2.7 0 -3.8 -0.2 -2.2 -0.4z"/>
 </g>
</svg>